<svg xmlns="http://www.w3.org/2000/svg" viewBox="0 0 500 500"><g id="freepik--background-simple--inject-305"><path d="M252.55,425.41c95,3.51,163.68-89.94,184.7-172.54,14-54.9,9.07-116-19.86-161.82C396.2,57.47,357.5,27.76,313.16,33.12c-49.41,6-75.3,62.79-125.87,69.62S83.17,140.63,64.92,184.65,60,301.63,99.43,353.72c22.47,29.7,54.46,53.15,91,64.7,20.09,6.35,39.86,6,60.95,6.94Z" style="fill:#DC2951"></path><path d="M252.55,425.41c95,3.51,163.68-89.94,184.7-172.54,14-54.9,9.07-116-19.86-161.82C396.2,57.47,357.5,27.76,313.16,33.12c-49.41,6-75.3,62.79-125.87,69.62S83.17,140.63,64.92,184.65,60,301.63,99.43,353.72c22.47,29.7,54.46,53.15,91,64.7,20.09,6.35,39.86,6,60.95,6.94Z" style="fill:#fff;opacity:0.8"></path></g><g id="freepik--Clouds--inject-305"><path d="M261.5,136.11s6.37-20-17.28-30-61.84,4.55-60,14.56,20,20,7.27,20.91-20.92-18.19-47.29-9.09,4.55,20.92-1.82,20.92-23.65-4.55-39.11,0,0,12.73,58.21,17.28,44.56-7.28,66.39-9.1,19.1,8.19,65.48,0S323.35,125.19,261.5,136.11Z" style="opacity:0.15"></path><path d="M107.17,244s2.59-8.12-7-12.17-25.08,1.84-24.34,5.9,8.11,8.11,3,8.48-8.48-7.38-19.18-3.69,1.85,8.48-.73,8.48-9.59-1.84-15.86,0,0,5.17,23.6,7,18.07-3,26.92-3.69,7.74,3.32,26.55,0S132.25,239.54,107.17,244Z" style="opacity:0.15"></path><path d="M358.16,208.73s1.94-6.09-5.26-9.14S334.06,201,334.62,204s6.09,6.09,2.21,6.36-6.37-5.53-14.4-2.76,1.39,6.36-.55,6.36-7.2-1.38-11.91,0,0,3.88,17.72,5.27,13.57-2.22,20.22-2.77,5.82,2.49,19.94,0S377,205.41,358.16,208.73Z" style="opacity:0.15"></path><path d="M141.09,58.76s1.94-6.09-5.26-9.14S117,51,117.55,54.05s6.1,6.1,2.22,6.37-6.37-5.54-14.4-2.77,1.38,6.37-.56,6.37-7.2-1.38-11.9,0,0,3.88,17.72,5.26,13.57-2.21,20.22-2.77,5.81,2.5,19.93,0S159.92,55.44,141.09,58.76Z" style="opacity:0.15"></path></g><g id="freepik--eiffel-tower--inject-305"><path d="M215.42,420.93c-1.51-2.4-4.6-7.52-4.64-7.6l0-.05-.07,0A294.17,294.17,0,0,1,189.29,367c-.1-1.77,0-4.65,1.36-5.29v-1.12h-1.72v-9.16h-5a518.88,518.88,0,0,1-14.61-56.59l.69-6.34H171v-2.86h-3.55q-1-5.1-1.86-10.32s.06-.06.07-.09a.45.45,0,0,0-.13-.5l0,0c-.7-4.13-1.39-8.31-2-12.55a.4.4,0,0,0,0-.15.5.5,0,0,0-.09-.24c-.65-4.28-1.29-8.62-1.89-13a.21.21,0,0,0,0-.06l0,0h0a.46.46,0,0,0,0-.23s0,0,0-.06a.44.44,0,0,0-.1-.19h0l0,0q-1.53-11.34-2.82-23.18c-1-9.18-1.83-18.14-2.52-26.77h0s0,0,0,0,0,0,0,0a.48.48,0,0,0,0-.18s0,0,0,0a.3.3,0,0,0-.08-.2v0l0,0c-3.09-39-3.28-71.31-3.12-87.32h0a.13.13,0,0,0,0,0s0,0,0,0v0a.46.46,0,0,0,0-.2v0a.56.56,0,0,0-.07-.16c0-2.73.07-5,.11-6.65a.45.45,0,0,0,0-.45c0-1.28,0-2.2.07-2.74a.42.42,0,0,0-.13-.32.39.39,0,0,0-.29-.13l4.68-8.44V87.66h-3.13v-8.9h-.53c-.21-4.55-2.52-8.3-5.6-9.45V66.12h-1V64.25h1v-4h-1V58.4h1v-4h-1V36.63a1,1,0,0,0-1.92,0V54.42h-1.05v4h1.05v1.87h-1.05v4h1.05v1.87h-1.05v3.19c-3.08,1.15-5.38,4.9-5.6,9.45H138v8.9h-3.13v3.51l4.85,8.49a.4.4,0,0,0-.24.4c0,.54,0,1.46.07,2.74a.43.43,0,0,0,0,.45c0,1.69.08,3.92.11,6.65a.28.28,0,0,0-.07.16s0,0,0,0a.35.35,0,0,0,0,.2v0s0,0,0,0l0,0h0c.17,16,0,48.29-3.12,87.32v0s0,0,0,0a.44.44,0,0,0-.08.2v0a.34.34,0,0,0,0,.18v0l0,0h0c-.68,8.63-1.51,17.59-2.51,26.77q-1.29,11.85-2.83,23.18l0,0h0a.37.37,0,0,0-.11.19s0,0,0,.06a.46.46,0,0,0,0,.23h0s0,0,0,0l0,.06q-.9,6.6-1.89,13a.41.41,0,0,0-.08.24.77.77,0,0,0,0,.15q-1,6.36-2,12.55l0,0a.45.45,0,0,0-.14.5l.08.09q-.9,5.22-1.87,10.32h-4.22v2.86H123l.57,5.26a521.19,521.19,0,0,1-14.83,57.67h-6.06v9.16h-.92v1.12s1.45,1.84,1.27,6.17a294.06,294.06,0,0,1-21.12,45.32l-.08,0,0,.05c0,.08-3.13,5.2-4.65,7.6h-6v7.29H102.1v-7.29H98.87c.71-1.21,1.77-3.07,3.11-5.57h.15v-.28c1.63-3.07,6.18-12.4,6.18-12.44l.75-1.63A57.52,57.52,0,0,1,131,387.87c17.37-5.63,34.86-1.65,52,11.83.45,1,.91,2,1.35,2.94,0,0,4.54,9.37,6.18,12.44v.28h.15c1.33,2.5,2.39,4.36,3.1,5.57h-3.48v7.29h30.94v-7.29ZM211,415.42q1.67,2.81,3.38,5.51h-.11l-8.77-2.75Zm-25.65-32.5.64,1.38-4.56-1.38Zm-6.05-22.29V357.3l5.65,3.33ZM187,386.47h0c.17.35.34.72.52,1.11h-3.23Zm1.38,2.91,2.1,4.44-8.14-4.44Zm.16-1.79-.36-.76,2.53.76Zm6.73,1.79-3.79,4.45c-.75-1.58-1.46-3.08-2.1-4.45Zm-3.67,7.09.19.11c.79,1.65,1.62,3.36,2.45,5.08h-7.06Zm3.65,5.19c-.71-1.46-1.42-2.92-2.1-4.34l8,4.34Zm6.29,1.8-3.74,3.39q-.84-1.68-1.68-3.39Zm-6.42,0c.56,1.14,1.11,2.27,1.67,3.39l-7.42-3.39Zm2.67,5.82.28.13c.73,1.45,1.44,2.84,2.13,4.15H193Zm3.43,4.28c-.59-1.12-1.2-2.31-1.83-3.55l7.76,3.55Zm5.92,1.8-3.91,2c-.34-.61-.7-1.27-1.07-2Zm-6,0,.94,1.74-5.53-1.74Zm2.08,4,.15,0c.34.58.65,1.09.94,1.55H200Zm2.15,1.59-.72-1.14,3.64,1.14Zm4-8.33L199.2,408l5.07-4.6Q206.73,408.11,209.32,412.6Zm-6.5-12-10.08-5.49,4.76-5.6C199.23,393.29,201,397,202.82,400.57Zm-6.19-13.06-7-2.12,5.18-2.15C195.37,384.68,196,386.1,196.63,387.51Zm-5.8-4.59-3.78,1.57-.73-1.57ZM188,352.37v8.26H187c0-.07-.05-.14-.07-.21l-.3-.85c-.82-2.36-1.62-4.77-2.42-7.2Zm-2.62,6.5-6.13-3.64v-2.86h4Q184.32,355.66,185.41,358.87Zm-2.45-7.4h-4.28l3.32-3C182.32,349.5,182.64,350.48,183,351.47Zm-14.69,6.92c-.61-1.95-1.23-4-1.84-6h2.45v5.47Zm.61,1.4v.54c0-.14-.09-.28-.13-.43Zm-41.47-8.32c2.72-9.21,5.41-19.53,7.89-30.88l0-.11q1.4-6.36,2.68-13.17l0,0,0,0,.06-.34h16.5l.06.34,0,0,0,0c.85,4.54,1.75,8.93,2.67,13.17l0,.11c2.47,11.35,5.17,21.67,7.89,30.88Zm32,.9v8.26h-8.6v-8.26Zm-9.5,0v8.26h-8.6v-8.26Zm-9.5,0v8.26h-8.6v-8.26Zm.77-233.45h4l-2,2.82Zm4,7.2h-4l2-2.82Zm-4-8.1,1.92-2.88,2,2.88Zm-.51-.85c0-2,0-3.82,0-5.5l1.91,2.68Zm0,2.55,2,2.8-2,2.83C140.61,123.37,140.62,121.5,140.62,119.72Zm4.53,7.3-2,3.13-2-3.13Zm0,7.92h-4l2-3.13Zm-1.49-4,1.87-2.9v5.79Zm1.87,5.82v6l-2-3.15Zm-1.85-14.28,1.85-2.64v5.27Zm-.09-8.18,1.94-2.92v5.65Zm-.56-.79-2.11-3H145Zm-2-3.87,2-2.32,1.92,2.32Zm-.45-.86c0-1.7-.05-3.18-.07-4.44l1.9,2.28Zm0,19,2,3.14-2.11,3.27C140.53,132,140.55,129.88,140.57,127.84Zm4.54,8-2.11,3-1.89-3Zm0,8h-4.61l2.43-3.45Zm.38,1.9v6.36l-2.12-3.22Zm-.4-1-2.26,3.34-2.2-3.34Zm0,8.41h-4.61l2.33-3.45Zm.39,1.92V162l-2.25-3.56Zm-.4-1-2.38,3.55-2.25-3.55Zm0,9h-5l2.57-3.82Zm.38,2V173l-2.49-4.1Zm-.39-1.05-2.62,4-2.43-4Zm0,10.1h-5.55l2.88-4.41Zm.36,1.91v9.7H139ZM139,296.38c-.28,1.75-.58,3.49-.88,5.21l-2.66-2.73Zm-4.17,1.83-2.47-2.54h6.1Zm5.1-1.95,2,2.5-3,3.43Q139.44,299.27,139.93,296.26Zm2.57,3.21,2.27,2.84H140Zm.6-.69,2.35-2.68v5.62Zm-.57-.71-1.92-2.4h4Zm-4.42-12.39-3.52-3.75,7.34-6.09c-.4,3.34-.84,6.61-1.29,9.84Zm7-99.08-3.45,4.5-3-4.5Zm.43.92v9.4l-3.36-5Zm-.66,10h-7.05l3.77-4.91Zm.66,1.18V209l-3.83-5.21Zm-.92-.28L141.15,203l-3.36-4.56Zm.47,11.43h-8l4.09-5.37Zm.45,1.62v9.72c0,.09,0,.17,0,.26l-4.16-5.32Zm-.56-.72-4.17,4.66-3.64-4.66Zm.08,11.55h-9.2l4.91-5.49Zm.44,1.22q-.09,5.41-.28,10.7l-4.66-5.47Zm-.93-.32-4.6,4.86-4.14-4.86Zm0,11.67h-9.81l5.16-5.46Zm.55,1.06q-.23,5.79-.59,11.42l-5.06-6ZM144,235.8l-5.12,4.93-4.19-4.93Zm0,12.27H132.58l6.25-6Zm.44,1.49q-.37,5.66-.87,11.13L138.2,255Zm-.69-.59-6.12,5.41L132.5,249Zm-.78,12.4H131l6.51-5.74Zm.44,1.08q-.57,6.12-1.27,12l-5.86-6.11Zm-1.18-.18-6.57,5.43-5.21-5.43Zm-1.14,12.39H128.6l7-5.74Zm-.19.9L134,281.27l-5.35-5.71Zm-4,10.12h-6.81l3.83-3.18Zm-5.25,10.62.05,0,2.4,2.47-3.2,2.23C131.21,299,131.46,297.42,131.63,296.3Zm3.09,3.08,2.85,2.93h-6.91l0-.11Zm-12.09,41.17,8.35-5.5q-1.47,5.81-3,11.16Zm4.54,8.56c-.23.8-.46,1.59-.69,2.36h-3.29Zm-1.61-2.86h-4.47c.34-1.22.68-2.44,1-3.66Zm2.6-11.5L123.28,338c.27-1.07.54-2.15.79-3.22ZM124.5,333q.47-2,.9-3.9l3.16,3.9Zm6.37,0-4.74-5.85,8.09-5.75q-1.33,6-2.72,11.6Zm1.81-12.71-6.32,4.49c.33-1.53.64-3,.94-4.49Zm-5-1.8c.26-1.29.51-2.54.75-3.77l3.69,3.77Zm1.83-5.23L137,308c-.69,3.63-1.41,7.15-2.14,10.59Zm5.92-6.31-6.37,4.44q.44-2.34.81-4.44Zm-5.57-5.22h0l-2.14-2.5,2.92-2.15C130.42,298.26,130.17,299.83,129.85,301.69Zm-.69.62h-5.69l3.5-2.58Zm-.21,4.6c-.27,1.52-.57,3.14-.89,4.85l-4.75-4.85Zm-2.2,11.54H122l5.54-3.85C127.28,315.85,127,317.13,126.75,318.45Zm-.36,1.8c-.35,1.71-.73,3.47-1.12,5.26l-.28.2-4.42-5.46Zm-1.71,7.93c-.35,1.57-.72,3.17-1.1,4.78h-5.7l6.78-4.81Zm-1.53,6.57c-.32,1.31-.64,2.63-1,4l-.79.52-4.24-4.48Zm-1.78,7.07c-.39,1.48-.8,3-1.21,4.43H114l7.11-4.69Zm-1.72,6.23c-.33,1.15-.67,2.29-1,3.42h-2l-3.83-3.42Zm-1.49,4.32-.31.18-.2-.18Zm-1.92,1.15-3.46,2.05v-3.2H115Zm1.38,1.26c-.63,2-1.29,3.94-2,5.85h-2.88v-3Zm.75.59,3,2.48v2.78h-4.77Q117.51,358.05,118.37,355.37Zm.89-1.56,2.12-1.26v3.17Zm.41-2.34h-.09c.34-1.13.68-2.27,1-3.42h4.85Zm2.61,7.11,1.61,1.32c-.08.25-.16.48-.23.73h-1.38Zm0-2.06v-4.15h3.93q-.93,3.09-1.84,6Zm4.86-4.15h3.74v8.26H124.6C125.44,358,126.29,355.23,127.14,352.37Zm23-184.36-2.61-4h5.05Zm0,1.68L153,174.1h-5.56Zm-2.66-6.59,2.43-3.82,2.56,3.82Zm2.41-5.46-2.38-3.55h4.62Zm-2.39-4.45,2.27-3.45,2.34,3.45Zm2.27-5.07-2.26-3.34H152Zm-2.29-4.23,2.19-3.45,2.43,3.45Zm2.15-5.06-2.1-3h4Zm-2.14-3.89,2-3.13,2,3.13Zm0-7.92h4l-2,3.13Zm4-8.1-2,2.82-2-2.82Zm-3.94-.9,2-2.88,1.93,2.88Zm3.94,8.1h-3.95l2-2.82Zm-1.43-3.6,2-2.8c0,1.78,0,3.65,0,5.63Zm2-5.35-1.88-2.82,1.9-2.68C152,113.35,152,115.18,152,117.17Zm-2.41-3.62-2-3h4.09Zm-1.87-3.87,1.93-2.32,2,2.32Zm-.63-.64v-4.71l2,2.34Zm1.94,5.3-1.94,2.73v-5.65Zm-.09,8.18-1.85,2.63v-5.27Zm0,8.46-1.86,2.89v-5.79Zm.14,8.67-2,3.15v-6Zm.12,9.28-2.12,3.22v-6.36Zm.13,9.53L147.11,162v-6.91Zm.24,10.4-2.49,4.1v-7.91Zm4,16.85h-6.53V176Zm3.67,112.87L154,295.67h5.92l0,.25Zm2.77-1.55c.18,1.18.43,2.73.74,4.58L158,299.17Zm-3.39,2.19-2.19,2.26c-.28-1.61-.56-3.23-.83-4.86Zm.68.59,2.88,2.5h-5.31Zm4.37,7.1c.2,1.15.42,2.35.65,3.6l-5.18-3.6Zm1.12,6.12c0,.13,0,.26.08.4l-5.11,5.2c-.74-3.44-1.45-7-2.14-10.59Zm-2.34,5.42,2.83-2.88c.19.94.38,1.9.58,2.88Zm3.77,1.8c.25,1.18.5,2.39.76,3.62L160,320.25Zm1.33,6.22.3,1.37L161.77,333h-.63q-1.39-5.61-2.72-11.6ZM164.08,333l2.34-2.89c.22.95.45,1.92.67,2.89Zm3.44,1.79c.2.8.39,1.6.59,2.4l-3.64-2.4Zm1.24,5c.14.56.29,1.12.43,1.67l-4.55,4.81q-1.5-5.35-3-11.16Zm1,3.72c.26.93.51,1.87.77,2.8h-3.43Zm.15-3,.12.08-.08.09Zm.58,2.21,1.06-1.12,7.12,4.69h-7.21C171.1,345.06,170.78,343.87,170.46,342.68Zm.8-3.45-2-1.35c-.26-1-.52-2.09-.77-3.13h7.05ZM168,333c-.3-1.27-.6-2.53-.88-3.78l.84-1,6.77,4.81Zm-.38-7.25-1.51-1.07c-.32-1.5-.63-3-.92-4.39h6.86Zm-2.8-7.26q-.37-1.87-.72-3.66l.51-.53,6,4.19Zm-.43-6.53-1-.68c-.29-1.52-.55-3-.79-4.33h6.68Zm-2.56-9.61,0-.18,3.22-2.81,4.12,3Zm-.21-1.22c-.33-2-.59-3.63-.77-4.8l3.42,2.49Zm-5.88-15.41,3-3.18,3.83,3.18Zm2.9-4.41-6.88-5.71H164Zm-7.07-6.61,5.5-5.74,6.94,5.74Zm5.43-7-6.57-5.43h11.77Zm-7.31-6.33,5.4-5.74,6.51,5.74Zm5.34-7L148.92,249h11.21Zm-6.37-6.31,5.13-6,6.25,6Zm5.06-7.34-5.12-4.93h9.32Zm-5.68-5.83,4.65-5.46,5.16,5.46Zm4.61-6.81-4.59-4.86h8.73Zm-5.08-5.76,4.29-5.49,4.9,5.49Zm4.24-6.89-4.16-4.66h7.81Zm-4.28-5.56,3.95-5.37,4.09,5.37Zm3.94-6.87L148,198.45h6.82Zm-3.72-5.46,3.27-4.91,3.78,4.91ZM151,191.1l-3.45-4.5H154Zm-.53.78-3.35,5v-9.4Zm.48,11.88L147.11,209V198.73Zm.33,12.4-4.16,5.32v-10Zm.82,12.62-4.66,5.47q-.19-5.28-.28-10.7Zm1.07,12.64-5.07,6q-.34-5.62-.59-11.42ZM154.43,255l-5.32,5.66q-.5-5.47-.88-11.13Zm2,13.32-5.86,6.11q-.71-5.9-1.28-12ZM158,281.93l-3.51,3.75H152c-.46-3.23-.89-6.5-1.3-9.84Zm-7.55,16.57,2.2-2.36q.42,2.61.87,5.17Zm2.83,3.81h-6.38l2.93-3.15Zm-3.5-4.42-2.43-2.22h4.51Zm-.61.66-2.87,3.07v-5.69Zm11.07,53.82h5.21c.85,2.86,1.7,5.62,2.55,8.26h-7.76Zm5.88-.9c-.23-.77-.46-1.56-.69-2.36l4,2.36Zm1-3.42H171c.26.92.53,1.83.8,2.74Zm5.39,5.29c.1.31.2.62.29.92L169.78,357v-4.66H171Zm-2.8,5.71,3.66-3q.75,2.32,1.55,4.58h-5.21Zm4.41-3.61.81-.67,3.38,2v3.86h-2.44C175.34,358.93,174.75,357.2,174.19,355.44Zm.28-3.07H175l-.2.18Zm1.93,1.15,1.28-1.15h.7v2.32Zm-.41-2h-3c-.34-1.14-.68-2.28-1-3.42h7.87Zm5.15-5.72-8.36-5.52,5.15-5.42Q179.49,340.38,181.14,345.75Zm-3.85-13.19-8.18-5.81,5-6.2Q175.67,326.65,177.29,332.56Zm-3.7-14.26L165.91,313l5.18-5.28Q172.31,313.06,173.59,318.3Zm-3.8-16.65-4.06-2.94,2.91-2.54Q169.21,298.93,169.79,301.65Zm-1.94-6-2.86,2.5-3.45-2.5Zm-1.27-10H164l-4.63-3.83,5.48-5.85C165.39,279.27,166,282.49,166.58,285.68Zm-2.12-11.83-6.75-5.58,5-5.21Q163.55,268.52,164.46,273.85Zm-2.09-13L155.72,255l5-5.34Q161.53,255.3,162.37,260.84Zm-2-13.67-6-5.81L159,236Q159.68,241.62,160.42,247.17Zm-2.69-22.08c.35,3.2.72,6.36,1.09,9.51l-5.53-5.85,4.3-5.05C157.64,224.17,157.68,224.62,157.73,225.09Zm-.36-3.45-4.93-5.52,3.89-5C156.65,214.61,157,218.1,157.37,221.64Zm-1.23-12.52-4.08-5.37,3.24-4.41Q155.69,204.17,156.14,209.12Zm-1.07-12.72-3.5-4.55,2.85-4.28C154.62,190.47,154.84,193.42,155.07,196.4Zm-.82-11.4-6.74-10h6.13Q153.91,179.91,154.25,185Zm-.71-11.74-2.88-4.42,2.45-4Q153.31,168.94,153.54,173.26Zm-.54-11-2.57-3.83,2.27-3.57Q152.83,158.48,153,162.28Zm-.39-9.95-2.3-3.4,2.09-3.18Q152.49,149,152.61,152.33Zm-.29-9.68-2.13-3,2-3.14C152.22,138.47,152.27,140.53,152.32,142.65ZM150,131l2-3.14q0,3.06.09,6.41Zm2-22.16-1.83-2.16,1.9-2.28C152.12,105.64,152.1,107.12,152.08,108.82ZM149.66,106,147.18,103h4.93Zm-2.55-34.34c2.56.6,4.55,3.52,4.78,7.14h-4.78Zm-.79,155a502.33,502.33,0,0,0,4.77,59h-9.55A502.23,502.23,0,0,0,146.32,226.67Zm-.79-122.34V109l-2-2.37Zm-.08-1.31L143,106,140.53,103Zm-.26-31.4v7.14H140.4C140.63,75.14,142.62,72.22,145.19,71.62Zm-4.74,64.86,2,3.14-2.13,3C140.37,140.53,140.41,138.47,140.45,136.48Zm-.22,9.27,2.1,3.18-2.3,3.4Q140.14,149,140.23,145.75Zm-.29,9.13,2.26,3.57-2.56,3.83Q139.81,158.49,139.94,154.88Zm-.42,9.92,2.46,4-2.88,4.42C139.25,170.38,139.4,167.56,139.52,164.8ZM139,175h6.13l-6.74,10C138.61,181.6,138.82,178.27,139,175Zm-.79,12.57,2.86,4.28-3.5,4.55C137.8,193.42,138,190.47,138.21,187.57Zm-.88,11.77,3.25,4.41-4.09,5.37Q136.94,204.17,137.33,199.34Zm-1,11.81,3.88,5-4.92,5.52C135.64,218.1,136,214.61,136.31,211.15Zm-1.41,13.94.15-1.39,4.29,5.05-5.53,5.85C134.19,231.45,134.55,228.29,134.9,225.09ZM133.65,236l4.6,5.41-6,5.81Q133,241.62,133.65,236Zm-1.76,13.68,5,5.34-6.65,5.87Q131.1,255.29,131.89,249.63Zm-2,13.43,5,5.21-6.75,5.58Q129.09,268.52,129.93,263.06ZM127.81,276l5.47,5.85-4.62,3.83h-2.6C126.66,282.49,127.24,279.27,127.81,276Zm3,19.67,0,.12-3.69,2.72-2.42-2.84Zm-6.84.55,2.41,2.82-3.54,2.61Q123.42,299,124,296.22Zm-1.27,6.09Zm-1.17,5.37,5.19,5.28-7.68,5.34C119.9,314.81,120.74,311.27,121.54,307.68Zm-3,12.87,5,6.2-8.18,5.81Q117,326.66,118.5,320.55Zm-3.79,14.26,5.15,5.42-8.36,5.52Q113.15,340.38,114.71,334.81Zm-4.07,13.69,3.32,3h-4.28Zm-1.25,3.87h2.49v3.73l-4.65,2.77Q108.32,355.66,109.39,352.37ZM86.3,420.93H84.39l2.38-.75C86.61,420.45,86.45,420.69,86.3,420.93Zm1.06,0c.22-.36.46-.74.7-1.16l1.4-.43,3.18,1.59Zm2.16-5.57c-.29.54-.58,1.06-.86,1.57l-3.12-1.57Zm-4-1.8,6.55-3c-.54,1-1.07,2-1.58,3Zm4,3.77,1.08-2h5.58l-6.51,2Zm2-3.77q.92-1.72,1.89-3.6l1.48-.68,4.72,4.28Zm4.19-10.1-1.44,2.84-3.14-2.84Zm-4.15-1.8,6.92-3.77c-.61,1.24-1.24,2.5-1.87,3.77ZM95,406.93l1.75-3.47h6.59l-8.09,3.7Zm2.65-5.27,2.24-4.52,1.22-.67,4.41,5.19Zm5-12.28c-.58,1.22-1.22,2.53-1.89,3.91l-3.33-3.91Zm-.66-1.79,1.79-.54-.26.54Zm-.6,6.46c.82-1.67,1.58-3.24,2.27-4.67h6.7l-8.84,4.82Zm3.13-6.46.43-.89.74-.23,2.69,1.12Zm1.48-3.08.75-1.59h4.49Zm1.72-23.88,4.18-2.47v2.47Zm-4.12-8.26h4.87c-.79,2.43-1.6,4.84-2.42,7.2l-.29.85-.08.21h-2.08Zm2.16,30.55-.65,1.36-3.28-1.36Zm-7.86.32,5.17,2.15-7,2.12Q97,385.4,97.88,383.24Zm-2.75,6.24,4.74,5.57,0,.05-10,5.47C91.63,397,93.41,393.29,95.13,389.48Zm-6.76,13.89,5,4.58v0l-10.1,4.62Q85.91,408.12,88.37,403.37Zm-6.72,12.05,5.5,2.76-8.76,2.75h-.11Q80,418.23,81.65,415.42Zm16.18,5.51H96.65l-4.73-2.37,8.8-2.76C99.44,418.17,98.45,419.89,97.83,420.93Zm4.21-7.59-5.37-4.87,10.08-4.61C105,407.57,103.4,410.73,102,413.34Zm5.76-11.74-5.11-6,10.18-5.54C111.1,394.31,109.39,398.16,107.8,401.6Zm7.34-17.16q-.63,1.6-1.26,3.15h-.83l-4.66-1.94,7.13-2.14c-.1.23-.19.46-.28.69l-.18.12Zm.31,1.66c.1-.24.19-.49.29-.73l.26.4Zm1.33-.77-.63-1c.15-.39.3-.77.46-1.16l.09-.26.69-1.77,1.61,3C118.23,384.53,117.5,384.93,116.78,385.33Zm3-1.6-2-3.68c.38-1,.76-2,1.14-3h.42l2.68,5.66C121.28,383,120.53,383.37,119.8,383.73Zm3.07-1.43L120.36,377h3.14l1.77,4.31C124.46,381.64,123.65,382,122.87,382.3Zm5.59-2.12c-.8.26-1.58.54-2.35.82l-1.64-4h3.2l1.19,3.05Zm1.26-.39L128.63,377h2.43l.78,2.19C131.12,379.39,130.41,379.58,129.72,379.79Zm3-.81-.7-2h2.83l.51,1.4C134.45,378.58,133.57,378.78,132.71,379Zm3.53-.74-.45-1.23h3.06l.07.82C138,378,137.12,378.09,136.24,378.24Zm8.32-.84c-1.63,0-3.21.15-4.75.32l-.06-.71h4.81Zm1.93,0h-1V377h1Zm5.64.32c-1.62-.18-3.2-.28-4.75-.31V377h4.81Zm3.59.5c-.91-.16-1.81-.29-2.69-.4l.06-.79h3.06Zm3.54.71c-.89-.2-1.77-.39-2.64-.56l.49-1.34h2.82Zm.87.22.75-2.12h2.43l-1.05,2.69C161.54,379.49,160.84,379.3,160.13,379.13Zm3,.82,1.16-2.94h3.19l-1.58,3.86C165,380.54,164,380.23,163.12,380Zm3.61,1.22,1.71-4.16h3.14l-2.43,5.12C168.34,381.79,167.53,381.47,166.73,381.17Zm3.25,1.31,2.6-5.47h1.1q.48,1.29,1,2.55l-.18-.1-2.2,4.05C171.5,383.14,170.74,382.8,170,382.48Zm5.36,2.58c-.76-.41-1.52-.79-2.27-1.16l1.89-3.49,1,2.51.1.26c.11.27.21.53.31.79l-.22-.14Zm.79.43.5-.79c.18.46.37.92.55,1.37Zm2.64,2.1h0c-.54-1.33-1.09-2.68-1.64-4.08l7.13,2.14-4.67,1.94Zm1,2.46,10.17,5.54-5.11,6C183.24,398.16,181.54,394.31,179.77,390.05Zm10.83,23.29c-1.36-2.61-3-5.77-4.71-9.48L196,408.47Zm1.31,2.46,8.8,2.76L196,420.93H194.8C194.19,419.89,193.2,418.17,191.91,415.8Z" style="fill:#263238"></path></g><g id="freepik--Trees--inject-305"><polygon points="284.22 407.74 284.22 402.65 272.29 402.65 272.29 409.3 208.97 409.3 208.97 405.08 181.47 405.08 181.47 409.3 163.31 409.3 163.31 403.59 153.45 403.59 153.45 409.82 126.46 409.82 126.46 404.11 121.71 404.11 121.71 401 92.6 401 92.6 406.18 87.02 406.18 87.02 401.19 79.23 401.19 79.23 410.33 16.97 410.33 16.97 429.26 126.13 429.26 126.13 429.26 414.48 429.26 414.48 407.74 284.22 407.74" style="opacity:0.15"></polygon><path d="M238.68,417.89s9.26-4.64,16.79,2.6l.3.28a26.25,26.25,0,0,0,10.12-20.68,26.92,26.92,0,0,0-53.84,0,26.3,26.3,0,0,0,10.18,20.73C223.91,419.57,231.75,414.29,238.68,417.89Z" style="fill:#DC2951"></path><path d="M238.68,417.89s9.26-4.64,16.79,2.6l.3.28a26.25,26.25,0,0,0,10.12-20.68,26.92,26.92,0,0,0-53.84,0,26.3,26.3,0,0,0,10.18,20.73C223.91,419.57,231.75,414.29,238.68,417.89Z" style="fill:#fff;opacity:0.2"></path><polygon points="229.38 412.23 238.23 415.19 237.81 429.26 239.98 429.26 239.52 411.09 246.36 407.29 256.17 408.4 247.38 406.72 258.17 400.73 251.56 403.96 252.55 400.83 257 397.31 252.84 399.93 254.08 395.98 251.16 403.01 248.72 400.06 250.08 395.48 248.3 399.54 245.42 396.06 250.81 403.87 250.57 404.45 239.49 409.87 239.22 399.4 242.53 395.58 252.25 393.06 248.3 393.75 250.17 391.65 247.56 393.88 243.37 394.6 248.17 389.06 244.37 392.73 244.67 388.06 243.77 393.3 239.17 397.73 238.97 389.81 238.83 394.56 237.18 391.75 237.81 388.35 241.33 384.98 237.99 387.37 239 381.9 236.64 390.84 234.42 387.06 235.94 390.1 232.08 388.9 236.36 390.96 238.79 395.82 238.57 403.53 233.46 399.59 232.18 396.43 232.75 391.73 231.75 395.31 231.82 395.54 229.58 389.98 232.73 399.03 227.92 395.31 233.99 400.8 224.83 400.23 229.85 400.95 223.67 402.65 231.11 401.13 234.96 401.68 238.53 404.9 238.27 413.68 232.27 412.34 226.58 405.31 229.6 409.57 222.58 407.81 230.41 410.71 231.44 412.16 224.67 410.65 228.22 411.84 221.17 413.48 229.38 412.23" style="fill:#263238"></polygon><path d="M289.63,417.89s9.26-4.64,16.79,2.6l.3.28a26.28,26.28,0,0,0,10.12-20.68,26.92,26.92,0,0,0-53.84,0,26.3,26.3,0,0,0,10.18,20.73C274.86,419.57,282.7,414.29,289.63,417.89Z" style="fill:#DC2951"></path><path d="M289.63,417.89s9.26-4.64,16.79,2.6l.3.28a26.28,26.28,0,0,0,10.12-20.68,26.92,26.92,0,0,0-53.84,0,26.3,26.3,0,0,0,10.18,20.73C274.86,419.57,282.7,414.29,289.63,417.89Z" style="fill:#fff;opacity:0.5"></path><polygon points="280.33 412.23 289.18 415.19 288.76 429.26 290.93 429.26 290.46 411.09 297.31 407.29 307.11 408.4 298.33 406.72 309.11 400.73 302.51 403.96 303.5 400.83 307.95 397.31 303.78 399.93 305.03 395.98 302.11 403.01 299.67 400.06 301.03 395.48 299.24 399.54 296.36 396.06 301.76 403.87 301.52 404.45 290.43 409.87 290.16 399.4 293.47 395.58 303.2 393.06 299.25 393.75 301.11 391.65 298.5 393.88 294.32 394.6 299.11 389.06 295.31 392.73 295.61 388.06 294.72 393.3 290.12 397.73 289.92 389.81 289.78 394.56 288.13 391.75 288.75 388.35 292.28 384.98 288.94 387.37 289.95 381.9 287.59 390.84 285.36 387.06 286.88 390.1 283.03 388.9 287.31 390.96 289.74 395.82 289.52 403.53 284.4 399.59 283.13 396.43 283.7 391.73 282.7 395.31 282.77 395.54 280.53 389.98 283.68 399.03 278.86 395.31 284.94 400.8 275.78 400.23 280.8 400.95 274.61 402.65 282.06 401.13 285.91 401.68 289.48 404.9 289.22 413.68 283.22 412.34 277.53 405.31 280.55 409.57 273.53 407.81 281.36 410.71 282.38 412.16 275.61 410.65 279.17 411.84 272.11 413.48 280.33 412.23" style="fill:#263238"></polygon><path d="M414.3,417.13s11.38-5.69,20.62,3.2l.37.34a32.27,32.27,0,0,0,12.43-25.41c0-18-14.8-32.53-33.06-32.53s-33.07,14.57-33.07,32.53a32.27,32.27,0,0,0,12.5,25.46C396.16,419.2,405.79,412.71,414.3,417.13Z" style="fill:#DC2951"></path><path d="M414.3,417.13s11.38-5.69,20.62,3.2l.37.34a32.27,32.27,0,0,0,12.43-25.41c0-18-14.8-32.53-33.06-32.53s-33.07,14.57-33.07,32.53a32.27,32.27,0,0,0,12.5,25.46C396.16,419.2,405.79,412.71,414.3,417.13Z" style="fill:#fff;opacity:0.4"></path><polygon points="402.88 410.18 413.74 413.82 413.29 429.26 415.85 429.26 415.33 408.78 423.73 404.11 435.78 405.47 424.99 403.41 438.23 396.06 430.12 400.02 431.33 396.17 436.8 391.86 431.68 395.07 433.22 390.22 429.63 398.86 426.63 395.23 428.3 389.61 426.11 394.6 422.57 390.32 429.19 399.91 428.9 400.62 415.29 407.28 414.96 394.42 419.02 389.72 430.97 386.64 426.12 387.48 428.41 384.9 425.2 387.63 420.06 388.52 425.95 381.73 421.28 386.22 421.65 380.5 420.55 386.93 414.9 392.37 414.65 382.64 414.48 388.48 412.45 385.03 413.23 380.85 417.56 376.71 413.45 379.64 414.69 372.92 411.79 383.91 409.06 379.27 410.93 383 406.19 381.52 411.45 384.05 414.44 390.02 414.16 399.49 407.88 394.65 406.32 390.77 407.01 385 405.79 389.4 405.88 389.67 403.12 382.85 406.99 393.96 401.08 389.4 408.54 396.14 397.29 395.44 403.45 396.32 395.86 398.41 405 396.54 409.73 397.22 414.11 401.17 413.8 411.96 406.42 410.32 399.44 401.69 403.15 406.91 394.53 404.76 404.14 408.31 405.4 410.09 397.08 408.24 401.45 409.7 392.79 411.72 402.88 410.18" style="fill:#263238"></polygon><path d="M342.31,417.13s11.37-5.69,20.62,3.2l.37.34a32.27,32.27,0,0,0,12.42-25.41c0-18-14.8-32.53-33.06-32.53S309.6,377.3,309.6,395.26a32.24,32.24,0,0,0,12.5,25.46C324.17,419.2,333.79,412.71,342.31,417.13Z" style="fill:#DC2951"></path><path d="M342.31,417.13s11.37-5.69,20.62,3.2l.37.34a32.27,32.27,0,0,0,12.42-25.41c0-18-14.8-32.53-33.06-32.53S309.6,377.3,309.6,395.26a32.24,32.24,0,0,0,12.5,25.46C324.17,419.2,333.79,412.71,342.31,417.13Z" style="fill:#fff;opacity:0.2"></path><polygon points="330.88 410.18 341.75 413.82 341.3 429.26 343.86 429.26 343.33 408.78 351.74 404.11 363.78 405.47 353 403.41 366.24 396.06 358.12 400.02 359.34 396.17 364.81 391.86 359.69 395.07 361.22 390.22 357.64 398.86 354.63 395.23 356.31 389.61 354.12 394.6 350.58 390.32 357.2 399.91 356.91 400.62 343.29 407.28 342.96 394.42 347.03 389.72 358.97 386.64 354.12 387.48 356.41 384.9 353.2 387.63 348.07 388.52 353.96 381.73 349.29 386.22 349.66 380.5 348.55 386.93 342.91 392.37 342.66 382.64 342.49 388.48 340.46 385.03 341.23 380.85 345.56 376.71 341.45 379.64 342.7 372.92 339.8 383.91 337.07 379.27 338.93 383 334.2 381.52 339.46 384.05 342.44 390.02 342.17 399.49 335.89 394.65 334.32 390.77 335.02 385 333.79 389.4 333.88 389.67 331.13 382.85 335 393.96 329.08 389.4 336.54 396.14 325.3 395.44 331.46 396.32 323.86 398.41 333 396.54 337.74 397.22 342.12 401.17 341.8 411.96 334.43 410.32 327.44 401.69 331.15 406.91 322.53 404.76 332.15 408.31 333.41 410.09 325.09 408.24 329.46 409.7 320.79 411.72 330.88 410.18" style="fill:#263238"></polygon><path d="M61,419.88s9.64-4.82,17.47,2.71l.31.29a27.33,27.33,0,0,0,10.54-21.53,28,28,0,0,0-56,0A27.36,27.36,0,0,0,43.9,422.93C45.66,421.64,53.81,416.14,61,419.88Z" style="fill:#DC2951"></path><path d="M61,419.88s9.64-4.82,17.47,2.71l.31.29a27.33,27.33,0,0,0,10.54-21.53,28,28,0,0,0-56,0A27.36,27.36,0,0,0,43.9,422.93C45.66,421.64,53.81,416.14,61,419.88Z" style="fill:#fff;opacity:0.2"></path><polygon points="51.35 413.99 60.55 417.08 60.21 429.26 62.31 429.26 61.9 412.81 69.02 408.85 79.23 410 70.09 408.26 81.31 402.02 74.43 405.39 75.46 402.12 80.09 398.47 75.76 401.19 77.06 397.08 74.02 404.4 71.47 401.32 72.89 396.56 71.03 400.79 68.04 397.17 73.65 405.29 73.4 405.89 61.87 411.53 61.59 400.64 65.03 396.66 75.15 394.04 71.04 394.75 72.98 392.57 70.26 394.89 65.91 395.64 70.9 389.88 66.94 393.69 67.26 388.84 66.32 394.29 61.54 398.9 61.33 390.66 61.18 395.6 59.46 392.68 60.12 389.14 63.79 385.63 60.31 388.12 61.36 382.42 58.91 391.73 56.59 387.8 58.17 390.96 54.16 389.71 58.62 391.85 61.15 396.91 60.91 404.93 55.59 400.83 54.27 397.54 54.85 392.66 53.81 396.39 53.89 396.62 51.56 390.83 54.84 400.25 49.82 396.39 56.15 402.09 46.62 401.5 51.84 402.25 45.4 404.02 53.15 402.44 57.16 403.01 60.87 406.36 60.6 415.5 54.35 414.11 48.44 406.79 51.58 411.22 44.27 409.4 52.42 412.41 53.49 413.92 46.44 412.35 50.14 413.59 42.8 415.29 51.35 413.99" style="fill:#263238"></polygon></g><g id="freepik--Floor--inject-305"><rect x="17" y="428.73" width="450" height="66" style="fill:#fff"></rect><line x1="13" y1="428.73" x2="469" y2="428.73" style="fill:none;stroke:#263238;stroke-miterlimit:10"></line></g><g id="freepik--Characters--inject-305"><path d="M421.79,458.53c0,3-36.59,5.4-81.73,5.4s-81.74-2.42-81.74-5.4,36.59-5.39,81.74-5.39S421.79,455.56,421.79,458.53Z" style="fill:#263238;stroke:#263238;stroke-linecap:round;stroke-linejoin:round"></path><path d="M323.67,445.38s0,.29-.05.75a23.56,23.56,0,0,0,.4,6.38c.71,2.32.71,7.66.71,7.66h-18s-.36-5.34.53-8.2,1.61-5.87,1.61-5.87a12.15,12.15,0,0,1,4.63-5.17C316.54,439.32,323.13,442.71,323.67,445.38Z" style="fill:#DC2951;stroke:#263238;stroke-linecap:round;stroke-linejoin:round"></path><path d="M306.73,455.54h17.79c.21,2.26.21,4.63.21,4.63h-18A42,42,0,0,1,306.73,455.54Z" style="fill:#fff;stroke:#263238;stroke-linecap:round;stroke-linejoin:round"></path><path d="M362.81,442.91l8.62,8.57s10.69,3.22,11,4.29-.35,4.29-.35,4.29H342.8s-.34-3.57-.34-7.5,1.72-11.79,1.72-11.79Z" style="fill:#DC2951;stroke:#263238;stroke-linecap:round;stroke-linejoin:round"></path><path d="M382.54,456.13a17.2,17.2,0,0,1-.42,3.93H342.8s-.16-1.65-.26-3.93Z" style="fill:#fff;stroke:#263238;stroke-linecap:round;stroke-linejoin:round"></path><path d="M354.39,307.39s4.5,40.15,5.21,50.15.36,29.65.36,33.58v45.36s2.5,3.57,2.5,5,2.15,3,2.15,3-9.29,2-13.58,2.76a56.76,56.76,0,0,1-8.22.71,71.11,71.11,0,0,1-1.43-12.14c0-5.36-1.07-7.86-1.07-10s-2.14-10.72-2.85-21.08,0-16.43-.72-20.36-6.43-44.65-6.43-44.65-2.86,37.86-3.93,44.65a62.38,62.38,0,0,0-1.07,10.72c0,1.43.71,6.43.71,13.57s-1.07,26.79-1.42,28.93-1.08,8.58-1.08,8.58-5.35-1.43-8.21-1.79-6.79,2.86-6.79,2.86.72-6.79,1.07-8.93a62.7,62.7,0,0,0,1.08-7.5c0-1.79-6.79-24.65-6.79-38.94V352.9L298,307.39l54.47-5.57Z" style="fill:#263238;stroke:#263238;stroke-linecap:round;stroke-linejoin:round"></path><path d="M330.09,217.73s10.12.57,16.49,1.44,9.83,3.47,11.28,6.36,22.85,16.78,22.85,16.78,15-.29,21.11.58,13.88-1.16,13.88-1.16,3.19-4.63,4.92-4.63,9,1.16,9.26,2.32-5.5,7.81-7.23,8.68-6.37.86-8.1,1.44-13.6,4.34-23.14,5.21-14.75,2-16.78,1.15-17.64-9-17.64-9-5.21,30.08-5.79,35,3.19,25.45,3.19,25.45a84.67,84.67,0,0,1-31.53,6.36c-18.51.29-24.87-6.36-24.87-6.36s-.87-39.92-.87-43.68-7.23-25.16-7.23-29.21,3.47-7.23,6.36-8.1,18.22-4.34,22.56-5.49S330.09,217.73,330.09,217.73Z" style="fill:#fff;stroke:#263238;stroke-linecap:round;stroke-linejoin:round"></path><path d="M296.25,226.4c2.89-.87,18.22-4.34,22.56-5.49s11.28-3.18,11.28-3.18,10.12.57,16.49,1.44,9.83,3.47,11.28,6.36c.94,1.88,10.29,8.39,16.73,12.73l-7,14.11c-4.94-2.52-10.55-5.43-10.55-5.43s-5.21,30.08-5.79,35,3.19,25.45,3.19,25.45a84.67,84.67,0,0,1-31.53,6.36c-18.51.29-24.87-6.36-24.87-6.36s-.87-39.92-.87-43.68-7.23-25.16-7.23-29.21S293.36,227.27,296.25,226.4Z" style="fill:#DC2951;stroke:#263238;stroke-linecap:round;stroke-linejoin:round"></path><path d="M306.34,224.1s14.85,39.71,28.8,57.6l1.21-2.13s-21.52-33.34-27-56.69Z" style="fill:#263238;stroke:#263238;stroke-linecap:round;stroke-linejoin:round"></path><path d="M353,275.63s-15.47,1.82-16.68,3.94a11,11,0,0,0-1.82,7.28c.31,3.34,8.49,8.19,11.83,9.4s10-.91,13-2.43,4.55-6.36,3.64-9.7-3.94-5.15-5.15-7S353.94,275.94,353,275.63Z" style="fill:#263238;stroke:#263238;stroke-linecap:round;stroke-linejoin:round"></path><polygon points="356.99 246.94 349.51 243.87 355.25 256.33 356.99 246.94" style="fill:#263238;stroke:#263238;stroke-linecap:round;stroke-linejoin:round"></polygon><polyline points="434.28 225.85 456.05 195.37 456.05 181.79" style="fill:none;stroke:#263238;stroke-linecap:round;stroke-linejoin:round;stroke-width:2px"></polyline><line x1="416.75" y1="250.38" x2="434.28" y2="225.85" style="fill:none;stroke:#263238;stroke-linecap:round;stroke-linejoin:round;stroke-width:4px"></line><path d="M297.12,184.17s-1.45,9.84.58,15.91,3.76,14.75,6.07,17.07,6.36,1.44,7.52,2,2,1.74,3.76,6.94,1.16,11.28,5.21,12.73,12.72.87,13.59-6.07-3.76-18.8-3.76-20.54v-6.94c0-.87,4-9.81,4-15.75s-4.33-12.6-9.25-13.46a27.16,27.16,0,0,0-8.38-.29s4.05-2.9-2.32-2.9-8.39,3.76-8.39,3.76.58-3.76-3.18-3.47S292.78,176.94,297.12,184.17Z" style="fill:#fff;stroke:#263238;stroke-linecap:round;stroke-linejoin:round"></path><path d="M302.61,173.18c3.76-.29,3.18,3.47,3.18,3.47s2-3.76,8.39-3.76,2.32,2.9,2.32,2.9a27.16,27.16,0,0,1,8.38.29c4.92.86,9.26,7.52,9.25,13.46s-4,14.88-4,15.75v3.46a1.6,1.6,0,0,1-.87,0c-1.44-.58-2.31-3.47-2.31-3.47a30.29,30.29,0,0,0,3.47-2c1.16-.86,1.73-6.36-2-7.81s-2.89,3.48-2.89,3.48a14.74,14.74,0,0,1-2.6-.29c-1.45-.29-.87-2.9-.87-4.34s-6.65-2-8.39-3.18,0-3.47.87-4.92-2.31-4-4.34-3.18-6.07,3.18-10.41,1.44a3.69,3.69,0,0,0-2.63-.33C292.81,176.93,298.86,173.47,302.61,173.18Z" style="fill:#263238;stroke:#263238;stroke-linecap:round;stroke-linejoin:round"></path><path d="M311.87,198.35s-2.6,3.18-5.79,1.15" style="fill:none;stroke:#263238;stroke-linecap:round;stroke-linejoin:round"></path><path d="M311.58,193.72s-2.6-2-6.94.29" style="fill:none;stroke:#263238;stroke-linecap:round;stroke-linejoin:round"></path><path d="M326,209.05s-2,4.63-4.63,6.07a19.23,19.23,0,0,1-6.65,1.74" style="fill:none;stroke:#263238;stroke-linecap:round;stroke-linejoin:round"></path><path d="M427.51,236.93s4.54,2.27,4.41,3-5.67,7.69-6.68,7.82-4-.88-4.29-1.64,5.46-9.61,5.46-9.61S426.63,236.43,427.51,236.93Z" style="fill:#fff;stroke:#263238;stroke-linecap:round;stroke-linejoin:round"></path><line x1="422.25" y1="243.87" x2="427.12" y2="246.03" style="fill:none;stroke:#263238;stroke-linecap:round;stroke-linejoin:round"></line><line x1="423.87" y1="240.89" x2="429.29" y2="243.19" style="fill:none;stroke:#263238;stroke-linecap:round;stroke-linejoin:round"></line><line x1="425.36" y1="238.45" x2="430.78" y2="241.7" style="fill:none;stroke:#263238;stroke-linecap:round;stroke-linejoin:round"></line><path d="M414.55,242.89s2.89-5.79,4.62-6.65,6.37-2.32,7.52-3.47,2-2.61,2.32-.58-1.16,4.34-2.6,4.34h-2.32s-.58,8.38-6.36,9" style="fill:#fff;stroke:#263238;stroke-linecap:round;stroke-linejoin:round"></path><rect x="440.33" y="180.37" width="23.93" height="14.29" rx="2.17" transform="translate(904.59 375.02) rotate(180)" style="fill:#263238"></rect><path d="M291.87,390.16s-3.29,38.89-2.46,43.62,7.19,19.52,8,20.14,6.24,2.5,5.76,3.7c-.56,1.37.82,1.64-1.85,1.64s-8.84.82-10.49.21-7.39-6.58-9.24-8.22-7.81-3.5-7.81-6,5.13-9.66,5.34-11.1a22.64,22.64,0,0,1,.41-2.26s-3.08-24.1-3.29-29.65.82-16.23.82-16.23Z" style="fill:#fff;stroke:#263238;stroke-linecap:round;stroke-linejoin:round"></path><polygon points="276.66 401.19 290.42 408.38 291.65 394 291.65 389.08 275.43 388.46 276.66 401.19" style="fill:#263238;stroke:#263238;stroke-linecap:round;stroke-linejoin:round"></polygon><path d="M284.68,442.41a41.37,41.37,0,0,1,3.49-5.76c.83-1,1.4-1,1.76-.76,1.76,6,6.77,17.49,7.49,18s6.24,2.26,5.76,3.7.82,1.64-1.85,1.64-8.84.82-10.49.21-7.39-6.58-9.24-8.22-7.81-3.5-7.81-6c0-1.83,2.79-6.22,4.34-9C280.48,438.33,284.68,442.41,284.68,442.41Z" style="fill:#263238;stroke:#263238;stroke-linecap:round;stroke-linejoin:round"></path><path d="M273.79,445.29a10.69,10.69,0,0,1,1.46-3.89c4.05,3,11.93,11.84,14.6,14.28,2.18,2,9.47,1.59,13.14,1.24a.77.77,0,0,1,.19.7c-.48,1.4.82,1.64-1.85,1.64s-8.84.82-10.49.21-7.39-6.58-9.24-8.22S273.79,447.75,273.79,445.29Z" style="fill:#fff;stroke:#263238;stroke-linecap:round;stroke-linejoin:round"></path><path d="M297.63,390.16s-11.51,15.82-19.12,22-21.09,22.24-22.94,24.3-.82,5.75-.21,8.42.83,5.14,2.26,7,4.12,3.7,5.14,4.93,0,3.09-.82,3.09-9.58-.05-10.69-.41c-2.46-.83-5.13-7.81-7-9.46s-7.61-9.25-7.2-11.1,6.37-6,9.05-8.22,10.61-14.64,14.92-20,4.73-11.51,9.87-15.83A50,50,0,0,1,281,388.31Z" style="fill:#fff;stroke:#263238;stroke-linecap:round;stroke-linejoin:round"></path><path d="M275.22,392.16s10.89,1.85,13.15,9.65l9.26-11.65-19.33-3.34Z" style="fill:#263238;stroke:#263238;stroke-linecap:round;stroke-linejoin:round"></path><path d="M237.07,438.91c.29-1.3,3.32-3.71,6-5.82l4.67,7.88a18.34,18.34,0,0,1,4.32-3.49,1.5,1.5,0,0,1,2.26,1l.27.11c-.32,2,.32,4.37.75,6.26.62,2.68.83,5.14,2.26,7s4.12,3.7,5.14,4.93,0,3.09-.82,3.09-9.58-.05-10.69-.41c-2.46-.83-5.13-7.81-7-9.46S236.66,440.76,237.07,438.91Z" style="fill:#263238;stroke:#263238;stroke-linecap:round;stroke-linejoin:round"></path><path d="M239.32,436.18c2.18,3.68,7.26,12.21,8.6,14.33,1.73,2.71,4.44,7.39,5.43,7.39h9.83c.05,1-.64,2-1.24,2-.82,0-9.58-.05-10.69-.41-2.46-.83-5.13-7.81-7-9.46s-7.61-9.25-7.2-11.1A7.37,7.37,0,0,1,239.32,436.18Z" style="fill:#fff;stroke:#263238;stroke-linecap:round;stroke-linejoin:round"></path><path d="M309.7,294.85s.47,2.6-.24,3.54a5.81,5.81,0,0,0-1.18,4v12s5.2,19.61,6.61,33.31,2.6,37.08,2.6,37.08l-.23,1.18s-17.25,8.27-36.62,6.14-31.18-10.86-31.18-10.86,11.81-38.27,14.18-46.53A70.72,70.72,0,0,0,266,316.58c0-1.42-2.13-13.46,2.6-23.15,2.73-5.6,8.26-10.39,8.26-10.39Z" style="fill:#DC2951;stroke:#263238;stroke-linecap:round;stroke-linejoin:round"></path><path d="M298.25,298.29s3.57,5.35,7.13,15.6" style="fill:none;stroke:#263238;stroke-linecap:round;stroke-linejoin:round"></path><path d="M279.71,297.63a16.67,16.67,0,0,1,1.15-2.46" style="fill:none;stroke:#263238;stroke-linecap:round;stroke-linejoin:round"></path><path d="M267.3,374.38a307.74,307.74,0,0,0,6.43-38.64c1.4-14.13,2.08-24.12,4-31.78" style="fill:none;stroke:#263238;stroke-linecap:round;stroke-linejoin:round"></path><path d="M263.92,387s.93-3.13,2.21-8" style="fill:none;stroke:#263238;stroke-linecap:round;stroke-linejoin:round"></path><path d="M288.68,387.13c-.13,1.66-.24,2.54-.24,2.54" style="fill:none;stroke:#263238;stroke-linecap:round;stroke-linejoin:round"></path><path d="M287.1,301.86s-1.33,28.53.9,50.81a213.47,213.47,0,0,1,1,29.45" style="fill:none;stroke:#263238;stroke-linecap:round;stroke-linejoin:round"></path><path d="M309,388.34s-3.57-29.42-7.13-47.26" style="fill:none;stroke:#263238;stroke-linecap:round;stroke-linejoin:round"></path><path d="M298.6,190s1.65,4,1.65,6.38.23,4.72,1.18,5.2,2.6-.48,3.07,1.65-1.89,3.54-1.89,3.54-.24,8-1.42,10.16-9.21,1.42-9.21,1.42l-.47,3.3a32.94,32.94,0,0,1,6.85,5.2c4,3.78,12.75,13.46,13,17s-.71,16.53-1.65,22.91,1.65,19.37,2.12,22.68.71,5-1.41,5.19-2.6-.23-8.74-2.36-19.61-5.91-22.68-7.09-3.31-2.36-3.31-4.25,0-4.49-2.36-11.1a66.45,66.45,0,0,1-4.49-24.8c0-11.34,3.31-20.08,5.2-22.2s3.78-2.37,4.25-5-5.43-15.36.71-25.28S293.63,183.36,298.6,190Z" style="fill:#263238;stroke:#263238;stroke-linecap:round;stroke-linejoin:round"></path><path d="M273.45,238.9a13.5,13.5,0,0,1-4.54,3.36c.47-10,3.39-17.5,5.12-19.45,1.89-2.13,3.78-2.37,4.25-5s-5.43-15.36.71-25.28,14.64-9.21,19.61-2.6c0,0,1.65,4,1.65,6.38s.23,4.72,1.18,5.2,2.6-.48,3.07,1.65-1.89,3.54-1.89,3.54-.24,8-1.42,10.16-9.21,1.42-9.21,1.42l-.47,3.3a25.35,25.35,0,0,1,3.54,2.37C294.94,224,289.19,222.43,273.45,238.9Z" style="fill:#fff;stroke:#263238;stroke-linecap:round;stroke-linejoin:round"></path><path d="M299.18,193.25s-4.48,1.63-3.67,7.54.05,12-1,13.81a29.19,29.19,0,0,1-2.56,3.72l-1.18.23a54.46,54.46,0,0,0,1.86-12.87c0-6.32.61-13.45,2.44-14.26s4.9,1.63,4.9,1.63" style="fill:#263238;stroke:#263238;stroke-linecap:round;stroke-linejoin:round"></path><path d="M270,266.2s5.89,6.4,6.92,7.68,7.42.77,10,.77,3.59,2.05,5.38,3.59,7.69,3.58,6.92,4.86-5.12.26-5.12.26a16.27,16.27,0,0,0,4.09,3.33c1.8.77,3.33,2.82,2.31,3.59s-6.66,1.79-10.5,1.53-7.43-3.07-9.22-5.38-3.08-4.35-3.08-4.35-12.37,1.12-15.95-1.95S259,269.79,262.6,267A7.1,7.1,0,0,1,270,266.2Z" style="fill:#fff;stroke:#263238;stroke-linecap:round;stroke-linejoin:round"></path><path d="M299,290.76s-6.27-2.18-9.54-6" style="fill:none;stroke:#263238;stroke-linecap:round;stroke-linejoin:round"></path><path d="M294.06,291.58a16.7,16.7,0,0,1-7.9-5.52" style="fill:none;stroke:#263238;stroke-linecap:round;stroke-linejoin:round"></path><path d="M288.88,291.85s-3.74-2-5.38-4.19" style="fill:none;stroke:#263238;stroke-linecap:round;stroke-linejoin:round"></path><path d="M284.66,229c.71,0,6.38-6.38,10.39-5s12.28,10.63,16.06,13.7S322.45,246,322.45,246s11.81-19.6,12.52-22.44.95-5.9,1.18-6.85,2.36-3.3,3.54-2.12a14.84,14.84,0,0,0,1.89,1.65s3.55.24,4.73,1.42l1.18,1.18s1.18,1.42.47,2.36-4.72,5-7.08,6.14-2.13,1.18-2.13,1.18-8.5,28.11-9.92,31.42-3.54,5.67-8.27,3.31-30.7-21.5-30.7-21.5" style="fill:#263238;stroke:#263238;stroke-linecap:round;stroke-linejoin:round"></path><path d="M310.32,237l.79.68c3.78,3.07,11.34,8.26,11.34,8.26s11.81-19.6,12.52-22.44.95-5.9,1.18-6.85,2.36-3.3,3.54-2.12a14.84,14.84,0,0,0,1.89,1.65s3.55.24,4.73,1.42l1.18,1.18s1.18,1.42.47,2.36-4.72,5-7.08,6.14-2.13,1.18-2.13,1.18-8.5,28.11-9.92,31.42-3.54,5.67-8.27,3.31c-2.38-1.19-10.17-6.65-17.3-11.77Z" style="fill:#fff;stroke:#263238;stroke-linecap:round;stroke-linejoin:round"></path><path d="M291.75,178.4s8.5,1.65,9.92,6.38-5.44,11.57-5.91,14.88-2.13,16.06-5,18.89-7.09,3.78-7.79,8.74,3.3,18.43,3.3,24.81-8,23.14-19.37,20.31-16.29-11.81-16.29-18.19,1.41-5.67-.71-8.5-11.1-10.87-4.73-22.21,18.43-14.64,19.14-17.71-2.6-13.7,3.3-21.26S288.2,176.75,291.75,178.4Z" style="fill:#DC2951;stroke:#263238;stroke-linecap:round;stroke-linejoin:round"></path><path d="M270.9,265.53c-5.11,3.48-12.57,2.48-13.5-2.34-1.12-5.75,5.42-5.75,6.86-4.15s1.12,3.83-.8,4.31" style="fill:none;stroke:#263238;stroke-linecap:round;stroke-linejoin:round"></path><path d="M295.39,188.35c-.4,3.48-1.4,7.69-3.83,10.83-4.95,6.38-12.61,11.65-11.81,16.28s.63,11.49-2.24,15S268,238.64,268.83,245s9.32,11.8,4.69,18c-.09.13-.19.25-.28.37" style="fill:none;stroke:#263238;stroke-linecap:round;stroke-linejoin:round"></path><path d="M295.55,181.94s.06.67.07,1.79" style="fill:none;stroke:#263238;stroke-linecap:round;stroke-linejoin:round"></path><path d="M257.84,239.63c-2.24,2-3.57,3.58-2,7.76,2.4,6.54,8.46,6.7,7,10.85" style="fill:none;stroke:#263238;stroke-linecap:round;stroke-linejoin:round"></path><path d="M276.27,208.82c-2.62,3.52-9.11,3.07-11.21,9.83-2.24,7.19,1.28,11.18-2.87,16.6-.42.54-.83,1-1.24,1.47" style="fill:none;stroke:#263238;stroke-linecap:round;stroke-linejoin:round"></path><path d="M290.28,180.18s-9.58,1-10.69,8.62c-.91,6.25-.76,12.28-1.89,16.63" style="fill:none;stroke:#263238;stroke-linecap:round;stroke-linejoin:round"></path><path d="M260.44,213.84c-4.86,3-10.32,6.88-12.3,12.63-3.51,10.22.64,11.34,3.35,17.09s4.15,5.42,2.55,11.33,3.68,9.74,3.68,9.74" style="fill:none;stroke:#263238;stroke-linecap:round;stroke-linejoin:round"></path><path d="M274.48,181.62s-7.19,2.55-6.87,10.37,3.68,12,1.12,16c-.81,1.27-2.83,2.57-5.33,4.08" style="fill:none;stroke:#263238;stroke-linecap:round;stroke-linejoin:round"></path></g></svg>